<svg xmlns="http://www.w3.org/2000/svg" width="247" height="239" fill="none" viewBox="0 0 247 239">
  <path fill="url(#a)" d="m.614 112.329 160.77 55.839v70.491L.869 182.819l-.255-70.49Z"/>
  <path fill="#fff" d="m63.578 158.006 64.147 22.328.086 23.457-64.149-22.328-.084-23.457Z"/>
  <path fill="#00042D" d="m35.543 148.017 13.528 4.702.084 23.458-13.612-4.732v-23.428Z"/>
  <path fill="url(#b)" d="m246.378 101.844-84.994 66.324v70.491l85.25-66.324-.256-70.491Z"/>
  <mask id="c" width="247" height="75" x="0" y="164" maskUnits="userSpaceOnUse" style="mask-type:luminance">
    <path fill="#fff" d="M.613 164.672h246.021v73.987H.613v-73.987Z"/>
  </mask>
  <g mask="url(#c)">
    <mask id="d" width="162" height="64" x="0" y="175" maskUnits="userSpaceOnUse" style="mask-type:luminance">
      <path fill="#fff" d="m.614 175.156 160.77 55.84v7.663L.869 182.819l-.255-7.663Z"/>
    </mask>
    <g mask="url(#d)">
      <mask id="f" width="87381" height="87381" x="-43900" y="-43191" maskUnits="userSpaceOnUse" style="mask-type:luminance">
        <path fill="url(#e)" d="M-43899-43190h87380v87380h-87380v-87380Z"/>
      </mask>
      <g mask="url(#f)">
        <path fill="url(#g)" d="m.613 175.157 160.77 55.84v7.663L.868 182.82l-.255-7.663Z"/>
      </g>
    </g>
    <mask id="h" width="86" height="75" x="161" y="164" maskUnits="userSpaceOnUse" style="mask-type:luminance">
      <path fill="#fff" d="m246.378 164.672-84.994 66.324v7.663l85.25-66.324-.256-7.663Z"/>
    </mask>
    <g mask="url(#h)">
      <mask id="j" width="87381" height="87381" x="-43900" y="-43191" maskUnits="userSpaceOnUse" style="mask-type:luminance">
        <path fill="url(#i)" d="M-43899-43190h87380v87380h-87380v-87380Z"/>
      </mask>
      <g mask="url(#j)">
        <path fill="url(#k)" d="m246.377 164.673-84.994 66.324v7.663l85.25-66.324-.256-7.663Z"/>
      </g>
    </g>
  </g>
  <path fill="url(#l)" d="m.614 29.123 160.77 55.84v70.49L.869 99.613l-.255-70.49Z"/>
  <path fill="#fff" d="m63.578 74.8 64.147 22.328.086 23.457-64.149-22.328-.084-23.457Z"/>
  <path fill="#00042D" d="m35.543 64.812 13.528 4.701.084 23.457-13.612-4.73V64.812Z"/>
  <path fill="url(#m)" d="m246.378 18.639-84.994 66.324v70.49l85.25-66.324-.256-70.49Z"/>
  <path fill="url(#n)" d="M78.933 3.176c-3.65 3.31-1.796 7.81 4.143 10.056 5.138 1.941 11.645 1.555 15.672-.73l104.525 39.774 3.172-2.476L101.609 9.91c1.897-3.089-.176-6.72-5.313-8.66C94.06.403 91.566 0 89.13 0c-4.04 0-7.92 1.112-10.197 3.176Z"/>
  <path fill="url(#o)" d="M94.269 28.935c-3.65 3.309-1.795 7.812 4.143 10.056 5.138 1.941 11.646 1.553 15.672-.73l72.026 27.407 3.172-2.476-72.337-27.524c1.897-3.087-.176-6.719-5.313-8.661-2.235-.844-4.728-1.25-7.164-1.25-4.04 0-7.922 1.114-10.2 3.178Z"/>
  <path fill="url(#p)" d="M148.13 10.017c-3.65 3.31-1.796 7.811 4.143 10.056 5.14 1.942 11.645 1.555 15.672-.729l52.117 19.83 3.171-2.474-52.427-19.95c1.898-3.087-.174-6.718-5.314-8.66-2.234-.845-4.728-1.249-7.164-1.249-4.04-.001-7.92 1.112-10.198 3.176Z"/>
  <mask id="q" width="247" height="75" x="0" y="81" maskUnits="userSpaceOnUse" style="mask-type:luminance">
    <path fill="#fff" d="M.613 81.467h246.021v73.986H.613V81.467Z"/>
  </mask>
  <g mask="url(#q)">
    <mask id="r" width="162" height="65" x="0" y="91" maskUnits="userSpaceOnUse" style="mask-type:luminance">
      <path fill="#fff" d="m.614 91.95 160.77 55.841v7.662L.869 99.613l-.255-7.662Z"/>
    </mask>
    <g mask="url(#r)">
      <mask id="t" width="87381" height="87381" x="-43900" y="-43191" maskUnits="userSpaceOnUse" style="mask-type:luminance">
        <path fill="url(#s)" d="M-43899-43190h87380v87380h-87380v-87380Z"/>
      </mask>
      <g mask="url(#t)">
        <path fill="url(#u)" d="m.613 91.95 160.77 55.84v7.663L.868 99.613.613 91.95Z"/>
      </g>
    </g>
    <mask id="v" width="86" height="75" x="161" y="81" maskUnits="userSpaceOnUse" style="mask-type:luminance">
      <path fill="#fff" d="m246.378 81.467-84.994 66.324v7.662l85.25-66.324-.256-7.662Z"/>
    </mask>
    <g mask="url(#v)">
      <mask id="x" width="87381" height="87381" x="-43900" y="-43191" maskUnits="userSpaceOnUse" style="mask-type:luminance">
        <path fill="url(#w)" d="M-43899-43190h87380v87380h-87380v-87380Z"/>
      </mask>
      <g mask="url(#x)">
        <path fill="url(#y)" d="m246.377 81.466-84.994 66.324v7.663l85.25-66.324-.256-7.663Z"/>
      </g>
    </g>
  </g>
  <defs>
    <linearGradient id="a" x1="123.126" x2="-.264" y1="243.893" y2="42.944" gradientUnits="userSpaceOnUse">
      <stop stop-color="#5C1CB2"/>
      <stop offset=".066" stop-color="#5C1CB2"/>
      <stop offset=".549" stop-color="#FF00C1"/>
      <stop offset=".603" stop-color="#FF00C1"/>
      <stop offset="1" stop-color="#F4AC24"/>
    </linearGradient>
    <linearGradient id="b" x1="234.204" x2="103.151" y1="198.475" y2="76.494" gradientUnits="userSpaceOnUse">
      <stop stop-color="#5C1CB2"/>
      <stop offset=".066" stop-color="#5C1CB2"/>
      <stop offset=".549" stop-color="#FF00C1"/>
      <stop offset=".603" stop-color="#FF00C1"/>
      <stop offset="1" stop-color="#F4AC24"/>
    </linearGradient>
    <linearGradient id="e" x1="86.19" x2="77.544" y1="189.607" y2="218.428" gradientUnits="userSpaceOnUse">
      <stop stop-color="#fff" stop-opacity="0"/>
      <stop offset=".823" stop-color="#fff"/>
      <stop offset="1" stop-color="#fff"/>
    </linearGradient>
    <linearGradient id="g" x1="86.188" x2="77.541" y1="189.61" y2="218.431" gradientUnits="userSpaceOnUse">
      <stop stop-color="#fff"/>
      <stop offset=".823" stop-color="#5C1CB2"/>
      <stop offset="1" stop-color="#5C1CB2"/>
    </linearGradient>
    <linearGradient id="i" x1="191.284" x2="209.032" y1="163.004" y2="217.473" gradientUnits="userSpaceOnUse">
      <stop stop-color="#fff" stop-opacity="0"/>
      <stop offset=".823" stop-color="#fff"/>
      <stop offset="1" stop-color="#fff"/>
    </linearGradient>
    <linearGradient id="k" x1="191.284" x2="209.032" y1="163.008" y2="217.477" gradientUnits="userSpaceOnUse">
      <stop stop-color="#fff"/>
      <stop offset=".823" stop-color="#5C1CB2"/>
      <stop offset="1" stop-color="#5C1CB2"/>
    </linearGradient>
    <linearGradient id="l" x1="160.214" x2="36.824" y1="221.087" y2="20.137" gradientUnits="userSpaceOnUse">
      <stop stop-color="#5C1CB2"/>
      <stop offset=".066" stop-color="#5C1CB2"/>
      <stop offset=".549" stop-color="#FF00C1"/>
      <stop offset=".603" stop-color="#FF00C1"/>
      <stop offset="1" stop-color="#F4AC24"/>
    </linearGradient>
    <linearGradient id="m" x1="275.649" x2="144.596" y1="153.845" y2="31.864" gradientUnits="userSpaceOnUse">
      <stop stop-color="#5C1CB2"/>
      <stop offset=".066" stop-color="#5C1CB2"/>
      <stop offset=".549" stop-color="#FF00C1"/>
      <stop offset=".603" stop-color="#FF00C1"/>
      <stop offset="1" stop-color="#F4AC24"/>
    </linearGradient>
    <linearGradient id="n" x1="154.991" x2="135.838" y1="81.159" y2="2.951" gradientUnits="userSpaceOnUse">
      <stop stop-color="#5C1CB2"/>
      <stop offset=".066" stop-color="#5C1CB2"/>
      <stop offset=".549" stop-color="#FF00C1"/>
      <stop offset=".603" stop-color="#FF00C1"/>
      <stop offset="1" stop-color="#F4AC24"/>
    </linearGradient>
    <linearGradient id="o" x1="163.508" x2="144.355" y1="79.073" y2=".865" gradientUnits="userSpaceOnUse">
      <stop stop-color="#5C1CB2"/>
      <stop offset=".066" stop-color="#5C1CB2"/>
      <stop offset=".549" stop-color="#FF00C1"/>
      <stop offset=".603" stop-color="#FF00C1"/>
      <stop offset="1" stop-color="#F4AC24"/>
    </linearGradient>
    <linearGradient id="p" x1="218.693" x2="199.54" y1="65.559" y2="-12.649" gradientUnits="userSpaceOnUse">
      <stop stop-color="#5C1CB2"/>
      <stop offset=".066" stop-color="#5C1CB2"/>
      <stop offset=".549" stop-color="#FF00C1"/>
      <stop offset=".603" stop-color="#FF00C1"/>
      <stop offset="1" stop-color="#F4AC24"/>
    </linearGradient>
    <linearGradient id="s" x1="86.19" x2="77.543" y1="106.399" y2="135.22" gradientUnits="userSpaceOnUse">
      <stop stop-color="#fff" stop-opacity="0"/>
      <stop offset=".823" stop-color="#fff"/>
      <stop offset="1" stop-color="#fff"/>
    </linearGradient>
    <linearGradient id="u" x1="86.188" x2="77.541" y1="106.403" y2="135.224" gradientUnits="userSpaceOnUse">
      <stop stop-color="#fff"/>
      <stop offset=".823" stop-color="#5C1CB2"/>
      <stop offset="1" stop-color="#5C1CB2"/>
    </linearGradient>
    <linearGradient id="w" x1="191.286" x2="209.034" y1="79.797" y2="134.266" gradientUnits="userSpaceOnUse">
      <stop stop-color="#fff" stop-opacity="0"/>
      <stop offset=".823" stop-color="#fff"/>
      <stop offset="1" stop-color="#fff"/>
    </linearGradient>
    <linearGradient id="y" x1="191.284" x2="209.032" y1="79.801" y2="134.269" gradientUnits="userSpaceOnUse">
      <stop stop-color="#fff"/>
      <stop offset=".823" stop-color="#5C1CB2"/>
      <stop offset="1" stop-color="#5C1CB2"/>
    </linearGradient>
  </defs>
</svg>
